<svg width="388" height="69" xmlns="http://www.w3.org/2000/svg">
    <path d="M21.5 69C33.968 69 43 61.893 43 44.5S33.87 20 21.5 20C9.032 20 0 27.2 0 44.5S9.032 69 21.5 69zm-2-1c-4.941 0-5.48-6.062-5.5-22.482v-2.03C14.023 27.154 14.648 21 19.5 21c4.858 0 5.5 6.312 5.5 23.5S24.45 68 19.5 68zm48.32 1v-1.148c-5.817-.862-7.272-1.819-7.272-7.561v-28.52c3.976-4.976 5.139-5.933 5.236-4.115.075.521.144 1.047.216 1.568l.062.445c.473 3.323 1.16 6.313 4.473 6.313 3.684 0 6.205-4.402 7.465-12.058l-.679-1.436c-1.066 1.053-1.842 1.436-2.423 1.436-1.843 0-1.843-3.924-4.945-3.924-2.812 0-5.333 2.967-9.405 9.188V20h-.969c-3.006 2.967-6.399 3.158-11.537 3.254H43v1.148c3.006.862 3.781 1.819 3.781 7.465v28.424c0 5.742-.775 6.7-3.781 7.56V69h24.82zm40.295 0c2.252 0 4.128-.655 7.224-2.15L122 63.482l-.563-.935c-4.222 1.215-4.41.56-4.41-5.05V36.084c0-11.782-7.505-16.084-18.106-16.084-5.066 0-10.32 1.122-13.79 1.122l-3.378 9.351h1.876c4.316-6.92 8.913-8.603 12.853-8.603 5.441 0 7.224 3.554 7.224 14.214v.655c-1.877-3.928-5.16-6.172-10.32-6.172C85.412 30.567 78 35.99 78 49.737 78 63.483 85.412 69 93.104 69c5.348 0 8.632-2.338 10.602-6.265v.093c0 4.489 1.5 6.172 4.41 6.172zm-10.747-4C94.024 65 92 60.108 92 49.954S94.024 35 97.368 35c3.344 0 5.632 4.246 5.632 14.954C103 60.754 100.712 65 97.368 65zm36.99 4c8.053 0 10.488-7.244 12.642-18.346l-1.686-.659c-1.685 8.374-3.277 11.855-5.15 11.855-1.926 0-2.325-2.255-2.34-7.384l-.001-25.169c0-4.704 1.685-6.585 8.24-6.585V20.83h-8.24V7h-.937c-2.34 8.373-6.836 13.171-17.886 13.83v1.882c4.682 0 5.525 1.881 5.525 6.585v24.838c0 9.502 2.716 14.865 9.833 14.865zm36.142 0c12.468 0 21.5-7.107 21.5-24.5S182.87 20 170.5 20c-12.468 0-21.5 7.2-21.5 24.5S158.032 69 170.5 69zm1-1c-4.941 0-5.48-6.062-5.5-22.482v-2.03c.023-16.333.648-22.488 5.5-22.488 4.858 0 5.5 6.312 5.5 23.5s-.55 23.5-5.5 23.5zm47.32 1v-1.148c-5.817-.862-7.272-1.819-7.272-7.561v-28.52c3.976-4.976 5.139-5.933 5.236-4.115l.063.448c.052.373.102.748.153 1.12l.062.445c.473 3.323 1.16 6.313 4.473 6.313 3.684 0 6.205-4.402 7.465-12.058l-.679-1.436c-1.066 1.053-1.842 1.436-2.423 1.436-1.843 0-1.843-3.924-4.945-3.924-2.812 0-5.333 2.967-9.405 9.188V20h-.969c-3.006 2.967-6.399 3.158-11.537 3.254H194v1.148c3.006.862 3.781 1.819 3.781 7.465v28.424c0 5.742-.775 6.7-3.781 7.56V69h24.82zm11.129 0c4.087 0 7.051-3.155 7.051-7 0-3.944-2.964-7-7.051-7-3.985 0-6.949 3.056-6.949 7 0 3.845 2.964 7 6.949 7zm28.488 0c8.88 0 14.702-4.77 17.563-18.422l-1.875-.374c-2.565 10.848-6.61 13.56-9.866 13.56-7.499 0-9.472-11.877-9.472-23.379 0-12.998 2.466-18.515 7.498-18.515 3.355 0 6.118 2.151 9.176 15.43h1.974l-2.27-16.178c-3.848 0-5.92-1.122-10.853-1.122C248.768 20 239 29.164 239 45.155 239 60.023 246.104 69 258.437 69zM296 68v-1.13c-2.766-.83-3.518-1.752-3.545-7.124V1h-.91c-2.818 2.917-6 3.105-10.818 3.2H276v1.129c2.818.847 3.545 1.788 3.545 7.34v46.768c0 5.646-.727 6.587-3.545 7.434V68h20zm31.429 1c3.004-2.899 6.396-3.086 11.532-3.18H344v-1.122c-2.948-.826-3.75-1.742-3.779-7.08V20h-.97c-3.004 2.899-6.492 3.086-11.531 3.18h-5.136v1.122c3.1.841 3.876 1.776 3.876 7.293v25.81c-2.907 4.769-5.62 6.732-8.044 6.732-2.81 0-3.876-2.711-3.876-8.977V20h-.969c-3.004 2.899-6.396 3.086-11.532 3.18H297v1.122c3.004.841 3.78 1.776 3.78 7.293v23.191c0 9.632 4.554 14.214 12.016 14.214 6.493 0 10.95-4.302 13.664-8.79V69h.969zm42.663 0C379.72 69 388 59.291 388 41.852c0-17.061-7.317-22.245-14.057-22.245-5.584 0-9.34 2.545-12.516 6.22V0h-.963c-2.915 3.407-6.198 3.756-11.104 3.77H344v1.132c2.985.848 3.755 1.79 3.755 7.446v56.18h1.926c1.829-7.823 3.754-11.122 8.087-14.044C360.078 64.38 362.775 69 370.092 69zm-1.402-2c-2.94 0-5.69-4.155-5.69-16.91V27.769c2.845-2.803 4.457-3.769 6.259-3.769 3.319 0 4.741 4.155 4.741 21.162C374 60.912 372.578 67 368.69 67z" fill="#FFF" fill-rule="nonzero"/>
</svg>
